<svg xmlns="http://www.w3.org/2000/svg" viewBox="0 0 512 512" style="height: 512px; width: 512px;"><defs><linearGradient x1="0" x2="1" y1="1" y2="0" id="lorc-light-bulb-gradient-0"><stop offset="0%" stop-color="#f16a12" stop-opacity="1"></stop><stop offset="100%" stop-color="#2bdb2a" stop-opacity="1"></stop></linearGradient></defs><path d="M0 0h512v512H0z" fill="url(#lorc-light-bulb-gradient-0)"></path><g class="" transform="translate(0,0)" style=""><path d="M247 18.656c-80.965 0-146.875 65.02-146.875 145.625 0 45.63 15.758 67 33.313 94.845 11.706 18.57 23.767 39.91 30.53 70.563h165.095c6.728-31.387 18.91-53.12 30.718-71.875 17.58-27.92 33.314-48.912 33.314-93.532 0-80.66-65.127-145.624-146.094-145.624zm-99.78 127.906L170.437 167 210 201.813l31.188-34.125 6.78-7.438 6.907 7.344 30.75 32.72 39.97-33.47 22.686-19-7.655 28.594L304.75 310.28l-18.063-4.842 28.22-105.25-24.032 20.125-6.78 5.656-6.033-6.44-29.906-31.78-30.562 33.438-6.188 6.78-6.875-6.062-23.25-20.437 27.94 104.218-18.064 4.812-35.937-134.063-8-29.875zm22.593 201.813V389.5L315 348.375H169.812zm153.593 17.063l-153.594 43.53v29.438l153.594-43.5v-29.47zm0 48.875L203.97 448.156h119.436v-33.844zm-132.562 52.53v20.533h113.282v-20.53h-113.28z" fill="#fff" fill-opacity="1"></path></g><g class="" transform="translate(256,256)" style=""><g transform="translate(256, 0) scale(-1, 1) rotate(0, 128, 128)"><circle cx="128" cy="128" r="128" fill="#69ae39" fill-opacity="1"></circle><circle stroke="#fff" stroke-opacity="1" fill="#69ae39" fill-opacity="1" stroke-width="18" cx="128" cy="128" r="101"></circle><path fill="#fff" fill-opacity="1" d="M150.094 59.7L139.07 78.695c-7.27-1.615-15.652-1.322-22.142.234l-10.791-19.054L80.33 74.858 91.5 94.554a48.133 48.133 0 0 0-9.938 18.63l-23.52.105-.197 29.834 25.035-.119a49.2 49.2 0 0 0 9.666 15.859L79.5 181.36l25.61 14.852 13.108-22.596a47.62 47.62 0 0 0 18.542.3l13.102 22.58 25.623-15.283c-4.08-7.22-8.161-14.44-12.244-21.66a48.554 48.554 0 0 0 10.252-16.378l24.464-.092.198-29.834-23.235-.156a48.717 48.717 0 0 0-10.387-19.304l11.172-19.24zm-19.705 44.292c12.71 1.043 22.352 12.16 21.787 25.043-.584 13.297-11.839 23.598-25.137 23.015-13.3-.582-23.855-11.836-23.018-25.121.905-14.35 13.161-24.021 26.368-22.937z"></path></g></g></svg>