<svg xmlns="http://www.w3.org/2000/svg" viewBox="0 0 512 512" style="height: 512px; width: 512px;"><defs><linearGradient x1="0" x2="1" y1="1" y2="0" id="delapouite-pencil-gradient-0"><stop offset="0%" stop-color="#f16a12" stop-opacity="1"></stop><stop offset="100%" stop-color="#2bdb2a" stop-opacity="1"></stop></linearGradient></defs><path d="M0 0h512v512H0z" fill="url(#delapouite-pencil-gradient-0)"></path><g class="" transform="translate(0,0)" style=""><path d="M429.548 30.836c-.307-.003-.6.005-.875.024-2.212.147-3.34.653-4.576 1.89l-27.58 27.58 55.156 55.154 27.578-27.58c1.238-1.236 1.744-2.363 1.89-4.575.15-2.21-.37-5.433-1.805-9.163-2.87-7.46-9.277-16.667-17.055-24.445-7.778-7.778-16.985-14.185-24.445-17.055-3.264-1.255-6.138-1.81-8.287-1.83zm-45.758 42.22l-9.9 9.9 9.9 9.9 12.727 12.727 9.9 9.9 12.727 12.728 9.9 9.9 9.9-9.9-55.155-55.155zm-22.627 22.626L72.665 384.186l9.898 9.897 288.5-288.5-9.9-9.9zm22.627 22.63L95.29 406.808l9.9 9.902 288.5-288.5-9.9-9.9zm22.63 22.626l-288.502 288.5 9.897 9.9 288.503-288.5-9.9-9.9zM63.223 400.198l-12.12 30.306 30.393 30.394 30.305-12.12-6.61-6.612L92.46 429.44l-9.9-9.9-12.73-12.728-6.61-6.612zm-19.395 48.488l-12.993 32.478 32.478-12.992-19.486-19.485z" fill="#fff" fill-opacity="1"></path></g><g class="" transform="translate(256,256)" style=""><g transform="translate(256, 0) scale(-1, 1) rotate(0, 128, 128)"><circle cx="128" cy="128" r="128" fill="#69ae39" fill-opacity="1"></circle><circle stroke="#fff" stroke-opacity="1" fill="#69ae39" fill-opacity="1" stroke-width="18" cx="128" cy="128" r="101"></circle><path fill="#fff" fill-opacity="1" d="M150.094 59.7L139.07 78.695c-7.27-1.615-15.652-1.322-22.142.234l-10.791-19.054L80.33 74.858 91.5 94.554a48.133 48.133 0 0 0-9.938 18.63l-23.52.105-.197 29.834 25.035-.119a49.2 49.2 0 0 0 9.666 15.859L79.5 181.36l25.61 14.852 13.108-22.596a47.62 47.62 0 0 0 18.542.3l13.102 22.58 25.623-15.283c-4.08-7.22-8.161-14.44-12.244-21.66a48.554 48.554 0 0 0 10.252-16.378l24.464-.092.198-29.834-23.235-.156a48.717 48.717 0 0 0-10.387-19.304l11.172-19.24zm-19.705 44.292c12.71 1.043 22.352 12.16 21.787 25.043-.584 13.297-11.839 23.598-25.137 23.015-13.3-.582-23.855-11.836-23.018-25.121.905-14.35 13.161-24.021 26.368-22.937z"></path></g></g></svg>